<?xml version="1.0" encoding="utf-8"?>
<!-- Generator: Adobe Illustrator 18.1.1, SVG Export Plug-In . SVG Version: 6.00 Build 0)  -->
<svg version="1.2" baseProfile="tiny" xmlns="http://www.w3.org/2000/svg" xmlns:xlink="http://www.w3.org/1999/xlink" x="0px"
	 y="0px" viewBox="0 0 512 512" xml:space="preserve">
<g id="Ebene_2">
	<ellipse fill="#999999" stroke="#B3B3B3" stroke-miterlimit="10" cx="256" cy="256" rx="248" ry="250.3"/>
</g>
<g id="Ebene_1">
	<path stroke="#000000" stroke-miterlimit="10" d="M408.7,401.9H103.3c-6.6,0-12-5.4-12-12V99.4c0-6.6,5.4-12,12-12h305.5
		c6.6,0,12,5.4,12,12v290.5C420.7,396.5,415.3,401.9,408.7,401.9z"/>
	<path stroke="#000000" stroke-miterlimit="10" d="M377.4,436.2h-38.6c-6.6,0-12-5.4-12-12v-10.3c0-6.6,5.4-12,12-12h38.6
		c6.6,0,12,5.4,12,12v10.3C389.4,430.8,384,436.2,377.4,436.2z"/>
	<path fill="#999999" stroke="#000000" stroke-miterlimit="10" d="M173.1,370.1h-38.6c-6.6,0-12-5.4-12-12v-39.7c0-6.6,5.4-12,12-12
		h38.6c6.6,0,12,5.4,12,12v39.7C185.1,364.7,179.7,370.1,173.1,370.1z"/>
	<path fill="#999999" stroke="#000000" stroke-miterlimit="10" d="M377.4,370.1h-38.6c-6.6,0-12-5.4-12-12v-39.7c0-6.6,5.4-12,12-12
		h38.6c6.6,0,12,5.4,12,12v39.7C389.4,364.7,384,370.1,377.4,370.1z"/>
	<path stroke="#000000" stroke-miterlimit="10" d="M173.1,436.2h-38.6c-6.6,0-12-5.4-12-12v-10.3c0-6.6,5.4-12,12-12h38.6
		c6.6,0,12,5.4,12,12v10.3C185.1,430.8,179.7,436.2,173.1,436.2z"/>
	<path fill="#999999" stroke="#000000" stroke-miterlimit="10" d="M385.3,287.3h-260c-6.6,0-12-5.4-12-12V117.4c0-6.6,5.4-12,12-12
		h260c6.6,0,12,5.4,12,12v157.8C397.3,281.9,391.9,287.3,385.3,287.3z"/>
</g>
</svg>
